<svg xmlns="http://www.w3.org/2000/svg" width="375" viewBox="0 0 375 375" height="375" version="1.0"><path fill="#FFF" d="M-37.5 -37.5H412.5V412.5H-37.5z"/><path fill="#FFF" d="M-37.5 -37.5H412.5V412.5H-37.5z"/><path fill="#FFF" d="M-37.5 -37.5H412.5V412.5H-37.5z"/><g><g><g><path d="M -1.171875 -53.9375 L 8.140625 -53.9375 L 24.296875 -16.875 L 40.515625 -53.9375 L 49.765625 -53.9375 L 24.875 0 L 23.78125 0 Z M -1.171875 -53.9375" transform="translate(35.772 217.435)"/></g></g></g><g><g><g><path d="M 5.71875 -53.9375 L 18.71875 -53.9375 C 29.570312 -53.9375 37.164062 -51.367188 41.5 -46.234375 C 45.832031 -41.097656 48 -34.984375 48 -27.890625 C 48 -22.941406 47.066406 -18.375 45.203125 -14.1875 C 43.347656 -10.007812 40.28125 -6.597656 36 -3.953125 C 31.71875 -1.316406 26.101562 0 19.15625 0 L 5.71875 0 Z M 20.03125 -7.265625 C 26.78125 -7.265625 31.6875 -9.179688 34.75 -13.015625 C 37.8125 -16.859375 39.34375 -21.691406 39.34375 -27.515625 C 39.34375 -33.191406 37.800781 -37.816406 34.71875 -41.390625 C 31.632812 -44.960938 26.738281 -46.75 20.03125 -46.75 L 13.9375 -46.75 L 13.9375 -7.265625 Z M 20.03125 -7.265625" transform="translate(122.885 217.435)"/></g></g></g><g><g><g><path d="M 25.46875 -54.015625 L 51.453125 0 L 41.984375 0 L 37.359375 -10.5625 L 12.625 -10.5625 L 8 0 L -1.171875 0 L 24.65625 -54.015625 Z M 21.796875 -31.046875 L 15.921875 -17.984375 L 34.125 -17.984375 L 28.328125 -30.96875 L 25.171875 -38.390625 L 25.03125 -38.390625 Z M 21.796875 -31.046875" transform="translate(211.906 217.435)"/></g></g></g><g><g><g><path d="M 18.125 0.734375 C 15.1875 0.734375 12.273438 0.222656 9.390625 -0.796875 C 6.503906 -1.828125 4.425781 -2.976562 3.15625 -4.25 L 7.046875 -11.234375 C 8.078125 -10.296875 9.679688 -9.328125 11.859375 -8.328125 C 14.035156 -7.328125 16.125 -6.828125 18.125 -6.828125 C 20.71875 -6.828125 22.832031 -7.4375 24.46875 -8.65625 C 26.113281 -9.882812 26.9375 -11.570312 26.9375 -13.71875 C 26.9375 -15.382812 26.492188 -16.828125 25.609375 -18.046875 C 24.734375 -19.273438 23.65625 -20.289062 22.375 -21.09375 C 21.101562 -21.90625 19.296875 -22.898438 16.953125 -24.078125 C 14.160156 -25.441406 12.253906 -26.46875 11.234375 -27.15625 C 6.484375 -30.332031 4.109375 -34.734375 4.109375 -40.359375 C 4.109375 -45.015625 5.648438 -48.578125 8.734375 -51.046875 C 11.816406 -53.515625 15.707031 -54.75 20.40625 -54.75 C 25.445312 -54.75 29.726562 -53.304688 33.25 -50.421875 L 29.359375 -43.734375 C 28.429688 -44.710938 27.117188 -45.554688 25.421875 -46.265625 C 23.734375 -46.984375 21.9375 -47.34375 20.03125 -47.34375 C 17.582031 -47.34375 15.660156 -46.789062 14.265625 -45.6875 C 12.878906 -44.582031 12.1875 -42.957031 12.1875 -40.8125 C 12.1875 -39.289062 12.625 -37.929688 13.5 -36.734375 C 14.382812 -35.535156 15.5 -34.492188 16.84375 -33.609375 C 18.1875 -32.734375 20.007812 -31.660156 22.3125 -30.390625 C 24.507812 -29.160156 26.195312 -28.191406 27.375 -27.484375 C 28.550781 -26.773438 29.648438 -25.929688 30.671875 -24.953125 C 32.097656 -23.679688 33.25 -22.164062 34.125 -20.40625 C 35.007812 -18.644531 35.453125 -16.710938 35.453125 -14.609375 C 35.453125 -11.328125 34.703125 -8.535156 33.203125 -6.234375 C 31.710938 -3.929688 29.660156 -2.191406 27.046875 -1.015625 C 24.429688 0.148438 21.457031 0.734375 18.125 0.734375 Z M 18.125 0.734375" transform="translate(300.708 217.435)"/></g></g></g></svg>