<svg xmlns="http://www.w3.org/2000/svg" width="375" viewBox="0 0 375 375" height="375" version="1.0"><g><g><g><path d="M 27.269531 -30.074219 L 22.671875 -30.074219 L 13.613281 -7.488281 L 4.636719 -30.074219 L -0.0429688 -30.074219 L 12.039062 0.0859375 L 15.1875 0.0859375 Z M 27.269531 -30.074219" transform="translate(98.716 202.125)"/></g></g></g><g><g><g><path d="M 14.335938 -30.035156 L 3.660156 -30.035156 L 3.660156 0 L 14.335938 0 C 24.078125 0 28.96875 -7.402344 28.96875 -14.847656 C 28.96875 -22.289062 24.078125 -30.035156 14.335938 -30.035156 Z M 14.335938 -4.296875 L 7.953125 -4.296875 L 7.953125 -25.738281 L 14.335938 -25.738281 C 21.226562 -25.738281 24.714844 -20.121094 24.714844 -14.847656 C 24.714844 -9.570312 21.226562 -4.296875 14.335938 -4.296875 Z M 14.335938 -4.296875" transform="translate(148.148 202.125)"/></g></g></g><g><g><g><path d="M 7.359375 -7.53125 L 19.441406 -7.53125 L 22.289062 0 L 26.886719 0 L 14.929688 -30.160156 L 11.785156 -30.160156 L -0.171875 0 L 4.464844 0 Z M 17.867188 -11.570312 L 8.933594 -11.570312 L 13.398438 -23.3125 Z M 17.867188 -11.570312" transform="translate(201.493 202.125)"/></g></g></g><g><g><g><path d="M 18.546875 -22.078125 L 22.800781 -22.25 C 22.035156 -27.695312 17.269531 -30.074219 12.675781 -30.074219 C 9.230469 -30.074219 5.65625 -28.714844 3.660156 -26.121094 C 2.550781 -24.671875 2 -22.972656 2 -21.183594 C 2 -20.972656 2.042969 -20.71875 2.042969 -20.460938 L 2.042969 -20.503906 C 2.511719 -14.292969 7.953125 -13.273438 12.59375 -12.804688 C 15.570312 -12.507812 18.632812 -12.125 19.144531 -9.871094 C 19.226562 -9.488281 19.269531 -9.144531 19.269531 -8.847656 C 19.269531 -5.785156 15.78125 -4 12.59375 -4 C 9.828125 -4 6.464844 -5.445312 6.167969 -8.210938 L 6.167969 -8.039062 L 6.125 -8.679688 L 1.785156 -8.59375 L 1.828125 -7.785156 C 2.382812 -2.46875 7.953125 0.253906 12.550781 0.253906 C 17.910156 0.253906 23.609375 -3.0625 23.609375 -8.804688 C 23.609375 -9.402344 23.523438 -10.125 23.398438 -10.761719 C 22.25 -15.527344 17.1875 -16.589844 13.101562 -17.101562 C 9.785156 -17.398438 6.339844 -17.824219 6.339844 -21.269531 C 6.339844 -22.121094 6.550781 -22.972656 7.0625 -23.609375 C 8.296875 -25.183594 10.550781 -25.863281 12.59375 -25.863281 C 15.144531 -25.863281 17.953125 -24.714844 18.546875 -22.078125 Z M 18.546875 -22.078125" transform="translate(250.967 202.125)"/></g></g></g></svg>